<svg width="64" height="64" viewBox="0 0 24 24" fill="none" xmlns="http://www.w3.org/2000/svg">
    <path d="M6.5 5H7.5V7H6.5V5ZM16.5 5H17.5V7H16.5V5ZM6.5 8H7.5V10H6.5V8ZM16.5 8H17.5V10H16.5V8ZM6.5 11H7.5V13H6.5V11ZM16.5 11H17.5V13H16.5V11ZM6.5 14H7.5V16H6.5V14ZM16.5 14H17.5V16H16.5V14ZM6.5 17H7.5V19H6.5V17ZM16.5 17H17.5V19H16.5V17ZM11 5H13V7H11V5ZM11 8H13V10H11V8ZM11 11H13V13H11V11ZM11 14H13V16H11V14ZM11 17H13V19H11V17Z" fill="#FF69B4"/>
    <path d="M2 2C2 1.44772 2.44772 1 3 1H21C21.5523 1 22 1.44772 22 2V22C22 22.5523 21.5523 23 21 23H3C2.44772 23 2 22.5523 2 22V2ZM3 3V21H21V3H3Z" stroke="#FF69B4" stroke-width="2"/>
</svg>
