<svg width="64" height="64" viewBox="0 0 24 24" fill="none" xmlns="http://www.w3.org/2000/svg">
    <path d="M12 0C8.686 0 6 2.686 6 6c0 1.163.322 2.246.865 3.162L2.004 18.596C1.635 19.08 1.705 19.78 2.19 20.149c.485.37 1.185.299 1.554-.186L9 13.928V20c0 .552.448 1 1 1h4c.552 0 1-.448 1-1v-6.072l5.256 6.186c.369.485.969.556 1.554.186.485-.369.555-1.069.186-1.554l-4.861-9.435c.543-.916.865-1.999.865-3.162 0-3.314-2.686-6-6-6z" fill="#8A2BE2"/>
    <path d="M12 2c2.206 0 4 1.794 4 4s-1.794 4-4 4-4-1.794-4-4 1.794-4 4-4zm0 1.5a2.5 2.5 0 100 5 2.5 2.5 0 000-5z" fill="#D8BFD8"/>
    <path d="M11 12.5h2v1h-2v-1zM11 9.5h2v1h-2v-1z" fill="#D8BFD8"/>
    <path d="M9 16h6v1H9v-1z" fill="#D8BFD8"/>
</svg>
