<svg width="64" height="64" viewBox="0 0 24 24" fill="none" xmlns="http://www.w3.org/2000/svg">
    <path d="M12 0L1.5 6v12L12 24l10.5-6V6L12 0z" fill="#8A2BE2"/>
    <path d="M12 1.5l8.25 4.75v9.5L12 22.5l-8.25-4.75v-9.5L12 1.5z" fill="#D8BFD8"/>
    <path d="M8.25 7.5h7.5v1.5h-7.5V7.5z" fill="#8A2BE2"/>
    <path d="M8.25 10.5h7.5v1.5h-7.5V10.5z" fill="#8A2BE2"/>
    <path d="M8.25 13.5h7.5v1.5h-7.5V13.5z" fill="#8A2BE2"/>
    <path d="M12 16.5h3.75v1.5H12v-1.5z" fill="#8A2BE2"/>
    <path d="M8.25 16.5h1.875v1.5H8.25v-1.5z" fill="#8A2BE2"/>
    <path d="M8.25 4.5h7.5v1.5h-7.5V4.5z" fill="#8A2BE2"/>
    <path d="M10.5 19.5H7.5v1.5h3v-1.5zm6 0h-3v1.5h3v-1.5z" fill="#8A2BE2"/>
</svg>